HIERARCHY
ROOT Hips
{
	OFFSET 0.000000 0.000000 0.000000
	CHANNELS 6 Xposition Yposition Zposition Zrotation Yrotation Xrotation 
	JOINT LHipJoint
	{
		OFFSET 0.000000 0.000000 0.000000
		CHANNELS 3 Zrotation Yrotation Xrotation
		JOINT LeftUpLeg
		{
			OFFSET 1.363060 -1.794630 0.839290
			CHANNELS 3 Zrotation Yrotation Xrotation
			JOINT LeftLeg
			{
				OFFSET 2.448110 -6.726130 0.000000
				CHANNELS 3 Zrotation Yrotation Xrotation
				JOINT LeftFoot
				{
					OFFSET 2.562200 -7.039590 0.000000
					CHANNELS 3 Zrotation Yrotation Xrotation
					JOINT LeftToeBase
					{
						OFFSET 0.157640 -0.433110 2.322550
						CHANNELS 3 Zrotation Yrotation Xrotation
						End Site
						{
							OFFSET 0.000000 0.000000 0.000000
						}
					}
				}
			}
		}
	}
	JOINT RHipJoint
	{
		OFFSET 0.000000 0.000000 0.000000
		CHANNELS 3 Zrotation Yrotation Xrotation
		JOINT RightUpLeg
		{
			OFFSET -1.305520 -1.794630 0.839290
			CHANNELS 3 Zrotation Yrotation Xrotation
			JOINT RightLeg
			{
				OFFSET -2.542530 -6.985550 0.000000
				CHANNELS 3 Zrotation Yrotation Xrotation
				JOINT RightFoot
				{
					OFFSET -2.568260 -7.056230 0.000000
					CHANNELS 3 Zrotation Yrotation Xrotation
					JOINT RightToeBase
					{
						OFFSET -0.164730 -0.452590 2.363150
						CHANNELS 3 Zrotation Yrotation Xrotation
						End Site
						{
							OFFSET 0.000000 0.000000 0.000000
						}
					}
				}
			}
		}
	}
}
MOTION
Frames: 24
Frame Time: 0.008333
1.760027 15.372229 -1.312840 -166.441100 72.594944 -142.049865 -11.229590 -1.629025 -4.968885 -20.693576 1.165454 -47.575477 -1.070922 3.963303 67.072713 3.508204 11.745497 -35.361736 -6.274600 0.000001 -12.268300 8.889280 1.968946 -4.984137 7.148237 -5.246931 -60.378584 -1.861381 -6.992303 83.167446 -0.747838 -1.877484 -11.076608 0.103000 0.000000 -45.984900
1.910153 15.418528 -1.357925 -167.055489 72.022447 -142.656702 -11.322674 -1.562993 -5.042023 -20.471134 1.528920 -46.604224 -1.112351 3.926916 66.532085 3.348051 11.173059 -34.697603 -5.881500 0.000000 -14.418700 8.742143 2.018996 -4.780976 7.257429 -4.576475 -61.080980 -1.696320 -6.893471 81.906314 -0.734084 -1.719135 -11.126532 0.098300 -0.000000 -46.155500
2.063201 15.471960 -1.404942 -167.667118 71.484708 -143.268831 -11.408478 -1.483669 -5.104504 -20.241294 1.912094 -45.548886 -1.165939 3.876780 65.822928 3.170659 10.511793 -33.940207 -5.444200 0.000000 -16.442599 8.597474 2.056609 -4.587827 7.397374 -3.988134 -61.719761 -1.519103 -6.792995 80.523313 -0.732853 -1.637490 -11.159572 0.096100 -0.000001 -46.403500
2.219623 15.531963 -1.453924 -168.299248 70.977924 -143.895365 -11.484993 -1.390744 -5.145857 -20.012183 2.284116 -44.430215 -1.223648 3.811232 64.949525 2.976600 9.790229 -33.024289 -4.965200 0.000000 -18.971800 8.456945 2.082565 -4.400851 7.570827 -3.489440 -62.318459 -1.333569 -6.692316 79.028235 -0.745889 -1.643842 -11.147817 0.095200 -0.000000 -46.789800
2.379328 15.598171 -1.505718 -168.920456 70.502905 -144.506580 -11.554842 -1.286094 -5.164231 -19.773608 2.636693 -43.258131 -1.286771 3.733033 63.936369 2.775713 9.030727 -32.030203 -4.476300 0.000000 -21.267700 8.318230 2.095327 -4.224516 7.803209 -3.089867 -62.875103 -1.140375 -6.591090 77.422625 -0.772163 -1.732660 -11.069478 0.093700 0.000000 -47.300700
2.542335 15.670109 -1.560682 -169.522185 70.057446 -145.083511 -11.618638 -1.171497 -5.155052 -19.526419 2.955652 -42.059959 -1.347918 3.643316 62.801099 2.570215 8.265749 -30.911637 -3.984600 0.000000 -23.718300 8.181316 2.093821 -4.056254 8.104959 -2.786326 -63.404493 -0.940978 -6.489751 75.709294 -0.809620 -1.892843 -10.898905 0.088099 -0.000000 -47.947100
2.708466 15.747328 -1.619071 -170.091918 69.642759 -145.608630 -11.677245 -1.049145 -5.118616 -19.269916 3.236638 -40.858571 -1.405617 3.545158 61.574012 2.366790 7.518105 -29.705695 -3.509300 -0.000000 -25.941801 8.045863 2.076317 -3.895398 8.487852 -2.573168 -63.911069 -0.734929 -6.388226 73.886571 -0.853735 -2.098960 -10.620208 0.074599 0.000000 -48.705300
2.877827 15.829270 -1.680457 -170.646121 69.258966 -146.082384 -11.729934 -0.920262 -5.053266 -19.013709 3.473272 -39.689483 -1.450566 3.440304 60.272600 2.164215 6.815642 -28.319924 -3.046201 0.000000 -28.731700 7.913803 2.041890 -3.734934 8.946444 -2.433330 -64.411766 -0.522060 -6.286734 71.953283 -0.899059 -2.320886 -10.222815 0.049400 0.000000 -49.566300
3.049846 15.915625 -1.745264 -171.151524 68.908997 -146.477433 -11.780293 -0.787879 -4.966919 -18.749089 3.683699 -38.565082 -1.485203 3.333512 58.929452 1.966834 6.156694 -26.815669 -2.608600 0.000000 -31.411900 7.783671 1.986819 -3.576925 9.493129 -2.353000 -64.887511 -0.298029 -6.183660 69.897407 -0.937558 -2.514818 -9.713747 0.010299 0.000000 -50.475700
3.224393 16.005889 -1.813026 -171.617330 68.594876 -146.798026 -11.829169 -0.653334 -4.864428 -18.479776 3.878683 -37.505714 -1.506598 3.227841 57.565633 1.773006 5.538292 -25.158343 -2.192600 0.000001 -34.200800 7.656894 1.909223 -3.417025 10.119693 -2.310982 -65.332266 -0.059390 -6.077616 67.709208 -0.961063 -2.637702 -9.106191 -0.042001 -0.000000 -51.411300
3.401145 16.099582 -1.883372 -172.041845 68.318146 -147.044285 -11.879036 -0.518210 -4.753021 -18.203391 4.077311 -36.522716 -1.513337 3.126604 56.198111 1.579970 4.944511 -23.316794 -1.793100 -0.000000 -37.289700 7.534083 1.806881 -3.252889 10.819028 -2.286220 -65.727483 0.198511 -5.966099 65.375366 -0.961223 -2.647317 -8.422265 -0.103200 -0.000001 -52.352800
3.579913 16.196090 -1.955984 -172.425564 68.078093 -147.219958 -11.932076 -0.383876 -4.639778 -17.918139 4.296684 -35.621954 -1.506281 3.032687 54.843600 1.385453 4.346854 -21.283067 -1.408600 0.000000 -40.655400 7.415902 1.678416 -3.082063 11.579295 -2.259390 -66.051850 0.480441 -5.845947 62.882916 -0.930311 -2.506601 -7.688632 -0.165800 -0.000001 -53.291300
3.760462 16.294749 -2.030297 -172.775864 67.873620 -147.338177 -11.990494 -0.251402 -4.531545 -17.620305 4.553714 -34.803906 -1.486470 2.948688 53.514843 1.187194 3.712032 -19.042527 -1.040200 0.000000 -44.371700 7.302986 1.523846 -2.902713 12.386517 -2.214305 -66.280819 0.790530 -5.712994 60.220827 -0.862408 -2.189737 -6.932179 -0.219900 -0.000000 -54.225600
3.942677 16.394726 -2.105990 -173.095780 67.699479 -147.407967 -12.056047 -0.122139 -4.433564 -17.306719 4.857950 -34.065483 -1.456637 2.876378 52.226032 0.984774 3.001031 -16.609236 -0.697700 -0.000000 -48.260100 7.195482 1.344741 -2.713340 13.224047 -2.140442 -66.392114 1.132038 -5.562483 57.381860 -0.754134 -1.685320 -6.175518 -0.255300 -0.000000 -55.159400
4.126353 16.495107 -2.182710 -173.390020 67.548775 -147.441343 -12.130366 0.002494 -4.349954 -16.972798 5.215322 -33.400316 -1.418965 2.816995 50.989599 0.779478 2.179284 -13.994639 -0.397200 -0.000000 -52.227799 7.093015 1.144619 -2.513213 14.075159 -2.031487 -66.365588 1.506220 -5.388711 54.364897 -0.605737 -1.001130 -5.432905 -0.263899 0.000000 -56.095200
4.311428 16.594891 -2.260132 -173.666341 67.413115 -147.452472 -12.214168 0.120794 -4.283162 -16.615018 5.624851 -32.802049 -1.375480 2.771011 49.817945 0.575383 1.220716 -11.218944 -0.163000 -0.000000 -56.179100 6.994900 0.929266 -2.302581 14.922926 -1.887274 -66.187887 1.911532 -5.185636 51.177729 -0.421689 -0.165936 -4.708278 -0.241100 0.000000 -57.033800
4.497698 16.692985 -2.338150 -173.929019 67.281196 -147.451676 -12.307305 0.230839 -4.233946 -16.231660 6.078931 -32.263757 -1.328396 2.738069 48.727020 0.379325 0.110094 -8.323723 -0.024700 0.000000 -59.879701 6.900206 0.706300 -2.082606 15.750557 -1.712918 -65.854005 2.342726 -4.947561 47.839805 -0.210795 0.770755 -3.994066 -0.187300 -0.000000 -57.973701
4.684972 16.788272 -2.416603 -174.185133 67.142927 -147.451439 -12.408654 0.330674 -4.201868 -15.822565 6.566465 -31.780758 -1.279048 2.717227 47.732052 0.200234 -1.148601 -5.350187 -0.011400 0.000000 -63.210500 6.808237 0.484814 -1.856069 16.543693 -1.517350 -65.367861 2.789886 -4.670141 44.384899 0.014235 1.741399 -3.272528 -0.107300 -0.000000 -58.910901
4.873014 16.879650 -2.495512 -174.439387 66.987490 -147.460604 -12.516049 0.418602 -4.185416 -15.390969 7.072959 -31.350027 -1.228909 2.707010 46.851659 0.047677 -2.532297 -2.358666 -0.145900 -0.000000 -65.970700 6.719002 0.274293 -1.627514 17.290040 -1.313864 -64.744709 3.238663 -4.352437 40.863780 0.238188 2.667717 -2.519451 -0.010000 0.000000 -59.845100
5.061569 16.966034 -2.574846 -174.702072 66.807508 -147.492580 -12.626029 0.494020 -4.181977 -14.944337 7.582384 -30.970761 -1.179288 2.705754 46.104207 -0.070103 -3.994340 0.583242 -0.436600 -0.000001 -68.019000 6.634087 0.083574 -1.403477 17.980805 -1.119730 -64.009800 3.671203 -3.998600 37.344885 0.445474 3.471353 -1.709037 0.092900 0.000000 -60.785000
5.250247 17.046416 -2.654705 -174.976825 66.596943 -147.554327 -12.735203 0.557072 -4.188937 -14.491817 8.082397 -30.645515 -1.130989 2.712202 45.508196 -0.148143 -5.466560 3.407418 -0.871500 0.000000 -69.308900 6.555920 -0.081034 -1.192495 18.612849 -0.954044 -63.196026 4.068837 -3.619163 33.912083 0.622257 4.084522 -0.819232 0.188100 -0.000000 -61.736800
5.438771 17.119865 -2.735103 -175.271434 66.354027 -147.655721 -12.839907 0.609692 -4.203415 -14.045434 8.564041 -30.378404 -1.084605 2.725859 45.082325 -0.185907 -6.863255 6.044599 -1.415500 0.000000 -69.839800 6.488179 -0.216538 -1.004036 19.188616 -0.837463 -62.341354 4.415065 -3.230825 30.658980 0.758566 4.461047 0.163567 0.261700 0.000000 -62.706099
5.626736 17.185585 -2.816166 -175.587090 66.078744 -147.801083 -12.937203 0.654589 -4.223044 -13.617275 9.023147 -30.175003 -1.040045 2.747160 44.844488 -0.187128 -8.089158 8.430753 -2.011400 -0.000000 -69.664800 6.434393 -0.323687 -0.847824 19.715745 -0.790794 -61.483857 4.698857 -2.854390 27.678721 0.849534 4.583061 1.241550 0.300700 -0.000000 -63.692100
5.813882 17.242771 -2.897807 -175.929713 65.774029 -147.997137 -13.024551 0.695178 -4.246229 -13.219012 9.460372 -30.043377 -0.996414 2.777590 44.813227 -0.158384 -9.051336 10.515160 -2.588800 -0.000001 -68.872101 6.397758 -0.406012 -0.730529 20.200238 -0.827392 -60.657354 4.914881 -2.510755 25.053974 0.894527 4.456938 2.401764 0.294299 -0.000000 -64.646699
